<svg width="10" height="10" viewBox="0 0 10 10" fill="none" xmlns="http://www.w3.org/2000/svg">
<g clip-path="url(#clip0)">
<path d="M9.86206 2.52174C9.79269 2.43994 9.69332 2.39319 9.58918 2.39319H7.65764V3.41883C7.65764 3.89011 7.2535 4.27353 6.75674 4.27353C6.25999 4.27353 5.85584 3.89011 5.85584 3.41883V2.39319H4.05404V3.41883C4.05404 3.89011 3.6499 4.27353 3.15314 4.27353C2.65638 4.27353 2.25224 3.89011 2.25224 3.41883V2.39319H0.320798C0.216564 2.39319 0.117195 2.43994 0.0478254 2.52174C-0.0216341 2.60353 -0.054517 2.71259 -0.0426251 2.82148L0.605573 8.78464C0.617645 9.45695 1.1417 10 1.78422 10H8.12575C8.76818 10 9.29224 9.45695 9.3044 8.78455L9.9526 2.82139C9.9644 2.71259 9.93152 2.60353 9.86206 2.52174Z" fill="#231F20"/>
<path d="M3.15315 3.76068C3.35188 3.76068 3.51351 3.60735 3.51351 3.4188V1.53846C3.51351 1.01051 4.07468 0.683761 4.59459 0.683761H5.49549C6.0427 0.683761 6.39639 1.01923 6.39639 1.53846V3.4188C6.39639 3.60735 6.5581 3.76068 6.75675 3.76068C6.9554 3.76068 7.11711 3.60735 7.11711 3.4188V1.53846C7.11711 0.647009 6.43513 0 5.49549 0H4.59459C3.60107 0 2.79279 0.690171 2.79279 1.53846V3.4188C2.79279 3.60735 2.95441 3.76068 3.15315 3.76068Z" fill="#231F20"/>
</g>
<defs>
<clipPath id="clip0">
<rect width="10" height="10" fill="white"/>
</clipPath>
</defs>
</svg>
