<svg width="97" height="55" viewBox="0 0 97 55" fill="none" xmlns="http://www.w3.org/2000/svg">
<path d="M84.131 32.6389V20.0029C84.131 18.6939 85.176 17.6329 86.466 17.6329L94.792 19.2139V11.0199C94.792 8.66493 93.084 7.58893 90.59 6.75493L67.403 0.174927C69.019 1.56593 69.292 2.21493 69.292 4.57093V49.7799C69.292 52.1359 68.842 53.8459 67.325 54.9899L90.59 47.9249C92.991 47.0919 94.792 43.7089 94.792 41.3529V33.4399L86.466 35.0069C85.176 35.0089 84.131 33.9469 84.131 32.6389Z" fill="#363636"/>
<path d="M95.129 20.9789L87.531 19.5349C86.523 19.5349 85.707 20.3639 85.707 21.3859V31.2539C85.707 32.2769 86.523 33.1059 87.531 33.1059L95.129 31.6749C96.283 31.2559 96.953 30.8459 96.953 29.8229V22.8299C96.953 21.8079 96.187 21.3229 95.129 20.9789Z" fill="#363636"/>
<path d="M67.17 4.48297C67.17 -0.597033 62.938 0.0239677 62.938 0.0239677C62.938 0.0239677 5.832 4.73797 2.838 5.14497C-0.155997 5.55197 0.00100259 9.53197 0.00100259 9.53197C0.00100259 9.53197 2.59155e-06 42.069 2.59155e-06 45.812C2.59155e-06 49.555 2.599 49.565 2.599 49.565L19.076 50.968L27.212 39.3C27.212 39.3 28.321 37.472 29.717 37.472C31.114 37.472 32.149 39.333 32.149 39.333L41.21 52.854C41.21 52.854 60.105 54.763 63.731 54.763C67.357 54.762 67.17 49.739 67.17 49.739C67.17 49.739 67.17 9.56297 67.17 4.48297ZM12.982 37.192C9.284 37.192 6.286 32.591 6.286 26.917C6.286 21.243 9.284 16.642 12.982 16.642C16.68 16.642 19.678 21.243 19.678 26.917C19.678 32.591 16.68 37.192 12.982 37.192ZM49.14 38.618C44.478 38.618 40.699 33.379 40.699 26.917C40.699 20.454 44.479 15.215 49.14 15.215C53.802 15.215 57.582 20.454 57.582 26.917C57.582 33.379 53.802 38.618 49.14 38.618Z" fill="#363636"/>
</svg>
